# Blender v2.79 (sub 0) OBJ File: 'corner.blend'
# www.blender.org
mtllib corner.mtl
o Cube_Cube.001
v 0.106397 0.054043 1.913171
v 0.106397 0.423997 1.913171
v 0.090014 0.054043 -0.086761
v 0.090014 0.423997 -0.086761
v 6.914473 0.054043 -3.000467
v 6.914473 0.423997 -3.000467
v 5.021519 0.054043 -3.646010
v 5.021519 0.423997 -3.646010
v 4.916118 0.054043 -3.363702
v 4.759795 0.054043 -3.015794
v 4.578652 0.054043 -2.680139
v 4.373644 0.054043 -2.358504
v 4.145851 0.054043 -2.052584
v 3.896471 0.054043 -1.763989
v 3.626819 0.054043 -1.494239
v 3.338315 0.054043 -1.244755
v 3.032477 0.054043 -1.016851
v 2.710916 0.054043 -0.811727
v 2.375326 0.054043 -0.630463
v 2.027475 0.054043 -0.474014
v 1.669194 0.054043 -0.343203
v 1.302369 0.054043 -0.238720
v 0.928933 0.054043 -0.161115
v 0.550852 0.054043 -0.110795
v 0.550852 0.423997 -0.110795
v 0.928933 0.423997 -0.161115
v 1.302369 0.423997 -0.238720
v 1.669193 0.423997 -0.343203
v 2.027475 0.423997 -0.474013
v 2.375326 0.423997 -0.630463
v 2.710916 0.423997 -0.811727
v 3.032477 0.423997 -1.016851
v 3.338315 0.423997 -1.244755
v 3.626819 0.423997 -1.494239
v 3.896471 0.423997 -1.763989
v 4.145851 0.423997 -2.052583
v 4.373644 0.423997 -2.358504
v 4.578652 0.423997 -2.680138
v 4.759795 0.423997 -3.015794
v 4.916118 0.423997 -3.363702
v 0.742597 0.054043 1.879992
v 1.264548 0.054043 1.810525
v 1.780086 0.054043 1.703389
v 2.286497 0.054043 1.559147
v 2.781115 0.054043 1.378560
v 3.261333 0.054043 1.162578
v 3.724624 0.054043 0.912337
v 4.168547 0.054043 0.629158
v 4.590764 0.054043 0.314530
v 4.989052 0.054043 -0.029889
v 5.361314 0.054043 -0.402286
v 5.705589 0.054043 -0.800698
v 6.020064 0.054043 -1.223030
v 6.303083 0.054043 -1.667054
v 6.553155 0.054043 -2.130436
v 6.768964 0.054043 -2.610733
v 6.768964 0.423997 -2.610733
v 6.553155 0.423997 -2.130436
v 6.303083 0.423997 -1.667055
v 6.020064 0.423997 -1.223030
v 5.705590 0.423997 -0.800699
v 5.361314 0.423997 -0.402286
v 4.989053 0.423997 -0.029889
v 4.590765 0.423997 0.314530
v 4.168547 0.423997 0.629158
v 3.724624 0.423997 0.912337
v 3.261333 0.423997 1.162577
v 2.781115 0.423997 1.378559
v 2.286498 0.423997 1.559147
v 1.780087 0.423997 1.703389
v 1.264548 0.423997 1.810525
v 0.742597 0.423997 1.879992
vn -1.0000 0.0000 0.0082
vn -0.9368 0.0000 -0.3498
vn 0.3228 0.0000 -0.9465
vn 0.0521 0.0000 0.9986
vn 0.0000 -1.0000 -0.0000
vn 0.0000 1.0000 0.0000
vn 0.9368 0.0000 0.3498
vn 0.9122 0.0000 0.4099
vn 0.8800 0.0000 0.4749
vn 0.8433 -0.0000 0.5375
vn 0.8021 -0.0000 0.5972
vn 0.7566 0.0000 0.6538
vn 0.7072 0.0000 0.7070
vn 0.6541 0.0000 0.7564
vn 0.5975 0.0000 0.8019
vn 0.5378 0.0000 0.8431
vn 0.4752 0.0000 0.8799
vn 0.4102 0.0000 0.9120
vn 0.3430 0.0000 0.9393
vn 0.2739 -0.0000 0.9617
vn 0.2035 -0.0000 0.9791
vn 0.1319 -0.0000 0.9913
vn -0.0521 0.0000 -0.9986
vn -0.1319 -0.0000 -0.9913
vn -0.2035 -0.0000 -0.9791
vn -0.2739 -0.0000 -0.9617
vn -0.3430 0.0000 -0.9393
vn -0.4102 0.0000 -0.9120
vn -0.4752 0.0000 -0.8799
vn -0.5378 0.0000 -0.8431
vn -0.5975 0.0000 -0.8019
vn -0.6541 0.0000 -0.7564
vn -0.7072 0.0000 -0.7070
vn -0.7566 0.0000 -0.6538
vn -0.8021 0.0000 -0.5972
vn -0.8433 -0.0000 -0.5375
vn -0.8800 -0.0000 -0.4749
vn -0.9122 0.0000 -0.4099
usemtl None
s off
f 1//1 2//1 4//1 3//1
f 9//2 40//2 8//2 7//2
f 7//3 8//3 6//3 5//3
f 41//4 72//4 2//4 1//4
f 9//5 7//5 5//5 56//5
f 25//6 4//6 2//6 72//6
f 8//6 40//6 57//6 6//6
f 40//6 39//6 58//6 57//6
f 39//6 38//6 59//6 58//6
f 38//6 37//6 60//6 59//6
f 37//6 36//6 61//6 60//6
f 36//6 35//6 62//6 61//6
f 35//6 34//6 63//6 62//6
f 34//6 33//6 64//6 63//6
f 33//6 32//6 65//6 64//6
f 32//6 31//6 66//6 65//6
f 31//6 30//6 67//6 66//6
f 30//6 29//6 68//6 67//6
f 29//6 28//6 69//6 68//6
f 28//6 27//6 70//6 69//6
f 27//6 26//6 71//6 70//6
f 26//6 25//6 72//6 71//6
f 3//5 24//5 41//5 1//5
f 24//5 23//5 42//5 41//5
f 23//5 22//5 43//5 42//5
f 22//5 21//5 44//5 43//5
f 21//5 20//5 45//5 44//5
f 20//5 19//5 46//5 45//5
f 19//5 18//5 47//5 46//5
f 18//5 17//5 48//5 47//5
f 17//5 16//5 49//5 48//5
f 16//5 15//5 50//5 49//5
f 15//5 14//5 51//5 50//5
f 14//5 13//5 52//5 51//5
f 13//5 12//5 53//5 52//5
f 12//5 11//5 54//5 53//5
f 11//5 10//5 55//5 54//5
f 10//5 9//5 56//5 55//5
f 5//7 6//7 57//7 56//7
f 56//8 57//8 58//8 55//8
f 55//9 58//9 59//9 54//9
f 54//10 59//10 60//10 53//10
f 53//11 60//11 61//11 52//11
f 52//12 61//12 62//12 51//12
f 51//13 62//13 63//13 50//13
f 50//14 63//14 64//14 49//14
f 49//15 64//15 65//15 48//15
f 48//16 65//16 66//16 47//16
f 47//17 66//17 67//17 46//17
f 46//18 67//18 68//18 45//18
f 45//19 68//19 69//19 44//19
f 44//20 69//20 70//20 43//20
f 43//21 70//21 71//21 42//21
f 42//22 71//22 72//22 41//22
f 3//23 4//23 25//23 24//23
f 24//24 25//24 26//24 23//24
f 23//25 26//25 27//25 22//25
f 22//26 27//26 28//26 21//26
f 21//27 28//27 29//27 20//27
f 20//28 29//28 30//28 19//28
f 19//29 30//29 31//29 18//29
f 18//30 31//30 32//30 17//30
f 17//31 32//31 33//31 16//31
f 16//32 33//32 34//32 15//32
f 15//33 34//33 35//33 14//33
f 14//34 35//34 36//34 13//34
f 13//35 36//35 37//35 12//35
f 12//36 37//36 38//36 11//36
f 11//37 38//37 39//37 10//37
f 10//38 39//38 40//38 9//38
