# Blender v2.79 (sub 0) OBJ File: 'hill.blend'
# www.blender.org
mtllib hill2.mtl
o Cube
v -0.473697 -0.348795 1.037598
v -0.593011 0.260578 1.061430
v -12.517771 -2.879942 0.938606
v -9.999201 -2.857443 0.939486
v -0.473694 -0.266694 -1.061669
v -0.593018 0.342680 -1.037837
v -12.517770 -2.797841 -1.160661
v -9.999202 -2.775342 -1.159781
v -2.401768 -0.416888 1.034935
v -3.336117 -0.484665 1.032284
v -4.238763 -0.574141 1.028785
v -5.101130 -0.684465 1.024470
v -5.915023 -0.814590 1.019381
v -6.672707 -0.963279 1.013566
v -7.366982 -1.129118 1.007080
v -7.991253 -1.310533 0.999985
v -8.539584 -1.505798 0.992348
v -9.006767 -1.713059 0.984242
v -9.388362 -1.930345 0.975744
v -9.680742 -2.155593 0.966935
v -9.881129 -2.386662 0.957898
v -9.987620 -2.621355 0.948719
v -9.999201 -2.857443 0.939486
v -3.006719 0.175334 1.058096
v -4.176408 0.090486 1.054778
v -5.306411 -0.021527 1.050397
v -6.385989 -0.159640 1.044996
v -7.404882 -0.322540 1.038625
v -8.353410 -0.508680 1.031345
v -9.222557 -0.716291 1.023225
v -10.004066 -0.943399 1.014343
v -10.690509 -1.187847 1.004783
v -11.275366 -1.447312 0.994635
v -11.753075 -1.719329 0.983997
v -12.119099 -2.001311 0.972969
v -12.369960 -2.290581 0.961656
v -12.503273 -2.584388 0.950165
v -12.517771 -2.879942 0.938606
v -2.401765 -0.334787 -1.064332
v -3.336114 -0.402563 -1.066983
v -4.238760 -0.492039 -1.070482
v -5.101128 -0.602364 -1.074797
v -5.915021 -0.732489 -1.079886
v -6.672706 -0.881177 -1.085701
v -7.366982 -1.047017 -1.092187
v -7.991251 -1.228431 -1.099282
v -8.539583 -1.423696 -1.106919
v -9.006767 -1.630957 -1.115025
v -9.388362 -1.848244 -1.123523
v -9.680742 -2.073492 -1.132332
v -9.881129 -2.304560 -1.141369
v -9.987620 -2.539254 -1.150548
v -9.999202 -2.775342 -1.159781
v -3.006725 0.257435 -1.041171
v -4.176414 0.172587 -1.044489
v -5.306416 0.060573 -1.048870
v -6.385993 -0.077540 -1.054271
v -7.404887 -0.240440 -1.060642
v -8.353413 -0.426580 -1.067922
v -9.222560 -0.634191 -1.076042
v -10.004069 -0.861299 -1.084924
v -10.690512 -1.105747 -1.094484
v -11.275367 -1.365212 -1.104632
v -11.753078 -1.637228 -1.115270
v -12.119100 -1.919211 -1.126298
v -12.369960 -2.208480 -1.137611
v -12.503273 -2.502288 -1.149102
v -12.517770 -2.797841 -1.160661
vn 0.0000 0.0000 1.0000
vn 0.9814 0.1919 0.0075
vn 0.0089 -0.9992 -0.0391
vn 0.0353 -0.9986 -0.0391
vn 0.0724 -0.9966 -0.0390
vn 0.0987 -0.9944 -0.0389
vn 0.1270 -0.9911 -0.0388
vn 0.1580 -0.9867 -0.0386
vn 0.1927 -0.9805 -0.0383
vn 0.2325 -0.9719 -0.0380
vn 0.2793 -0.9595 -0.0375
vn 0.3357 -0.9412 -0.0368
vn 0.4058 -0.9133 -0.0357
vn 0.4951 -0.8682 -0.0340
vn 0.6106 -0.7913 -0.0309
vn 0.7557 -0.6544 -0.0256
vn 0.9108 -0.4126 -0.0161
vn 0.9988 -0.0489 -0.0019
vn -0.0353 0.9986 0.0391
vn -0.0724 0.9966 0.0390
vn -0.0987 0.9944 0.0389
vn -0.1270 0.9911 0.0388
vn -0.1580 0.9867 0.0386
vn -0.1927 0.9805 0.0383
vn -0.2325 0.9719 0.0380
vn -0.2793 0.9595 0.0375
vn -0.3357 0.9412 0.0368
vn -0.4058 0.9133 0.0357
vn -0.4951 0.8682 0.0340
vn -0.6106 0.7913 0.0309
vn -0.7557 0.6544 0.0256
vn -0.9108 0.4126 0.0161
vn -0.9988 0.0489 0.0019
vn -0.0000 0.0391 -0.9992
vn 0.0000 -0.0391 0.9992
usemtl Material
s off
f 23//1 38//1 3//1 4//1
f 53//1 8//1 7//1 68//1
f 1//2 5//2 6//2 2//2
f 38//1 68//1 7//1 3//1
f 3//3 7//3 8//3 4//3
f 53//1 23//1 4//1 8//1
f 5//4 1//4 9//4 39//4
f 39//5 9//5 10//5 40//5
f 40//6 10//6 11//6 41//6
f 41//7 11//7 12//7 42//7
f 42//8 12//8 13//8 43//8
f 43//9 13//9 14//9 44//9
f 44//10 14//10 15//10 45//10
f 45//11 15//11 16//11 46//11
f 46//12 16//12 17//12 47//12
f 47//13 17//13 18//13 48//13
f 48//14 18//14 19//14 49//14
f 49//15 19//15 20//15 50//15
f 50//16 20//16 21//16 51//16
f 51//17 21//17 22//17 52//17
f 52//18 22//18 23//18 53//18
f 2//19 6//19 54//19 24//19
f 24//20 54//20 55//20 25//20
f 25//21 55//21 56//21 26//21
f 26//22 56//22 57//22 27//22
f 27//23 57//23 58//23 28//23
f 28//24 58//24 59//24 29//24
f 29//25 59//25 60//25 30//25
f 30//26 60//26 61//26 31//26
f 31//27 61//27 62//27 32//27
f 32//28 62//28 63//28 33//28
f 33//29 63//29 64//29 34//29
f 34//30 64//30 65//30 35//30
f 35//31 65//31 66//31 36//31
f 36//32 66//32 67//32 37//32
f 37//33 67//33 68//33 38//33
f 5//34 39//34 54//34 6//34
f 39//34 40//34 55//34 54//34
f 40//34 41//34 56//34 55//34
f 41//34 42//34 57//34 56//34
f 42//34 43//34 58//34 57//34
f 43//34 44//34 59//34 58//34
f 44//34 45//34 60//34 59//34
f 45//34 46//34 61//34 60//34
f 46//34 47//34 62//34 61//34
f 47//34 48//34 63//34 62//34
f 48//34 49//34 64//34 63//34
f 49//34 50//34 65//34 64//34
f 50//34 51//34 66//34 65//34
f 51//34 52//34 67//34 66//34
f 52//34 53//34 68//34 67//34
f 1//35 2//35 24//35 9//35
f 9//35 24//35 25//35 10//35
f 10//35 25//35 26//35 11//35
f 11//35 26//35 27//35 12//35
f 12//35 27//35 28//35 13//35
f 13//35 28//35 29//35 14//35
f 14//35 29//35 30//35 15//35
f 15//35 30//35 31//35 16//35
f 16//35 31//35 32//35 17//35
f 17//35 32//35 33//35 18//35
f 18//35 33//35 34//35 19//35
f 19//35 34//35 35//35 20//35
f 20//35 35//35 36//35 21//35
f 21//35 36//35 37//35 22//35
f 22//35 37//35 38//35 23//35
